#tb 0: 9/125
#media_type 0: video
#codec_id 0: rawvideo
#dimensions 0: 640x480
#sar 0: 0/1
0,          0,          0,        1,   921600, 0x50a87396
0,          1,          1,        1,   921600, 0xa6e65d9e
0,          2,          2,        1,   921600, 0x05956f62
0,          3,          3,        1,   921600, 0xffd6a5d7
0,          4,          4,        1,   921600, 0xaab0a179
0,          5,          5,        1,   921600, 0x289db2db
0,          6,          6,        1,   921600, 0x3d3840cf
0,          7,          7,        1,   921600, 0xec0a4142
0,          8,          8,        1,   921600, 0x713a9f65
0,          9,          9,        1,   921600, 0x28a8f0cd
0,         10,         10,        1,   921600, 0x0fd95ba9
0,         11,         11,        1,   921600, 0xa744bdfd
0,         12,         12,        1,   921600, 0x3cdea2a5
0,         13,         13,        1,   921600, 0xe7d671e4
0,         14,         14,        1,   921600, 0x75824cdf
0,         15,         15,        1,   921600, 0x82067d95
0,         16,         16,        1,   921600, 0xee143a4c
0,         17,         17,        1,   921600, 0xa53d3f2b
0,         18,         18,        1,   921600, 0xb491c0c5
0,         19,         19,        1,   921600, 0x6aaaef07
0,         20,         20,        1,   921600, 0xad23cca8
0,         21,         21,        1,   921600, 0xdce91bd8
0,         22,         22,        1,   921600, 0x1a1499bc
0,         23,         23,        1,   921600, 0x4cbe505a
0,         24,         24,        1,   921600, 0x24006f65
0,         25,         25,        1,   921600, 0x0711906e
0,         26,         26,        1,   921600, 0x50a87396
